# Blender 3.3.0
# www.blender.org
mtllib part1.mtl
o Cube
v 0.370300 1.000000 -0.370300
v 0.000000 -1.000000 0.000000
v 0.370300 1.000000 0.370300
v -0.370300 1.000000 -0.370300
v -0.370300 1.000000 0.370300
v 0.519519 0.000000 -0.519519
v -0.519519 0.000000 0.519519
v 0.519519 0.000000 0.519519
v -0.519519 0.000000 -0.519519
v -0.460420 0.500000 0.460420
v 0.460420 0.500000 -0.460420
v 0.460420 0.500000 0.460420
v -0.460420 0.500000 -0.460420
v -0.519519 0.750000 0.519519
v 0.519519 0.750000 -0.519519
v 0.519519 0.750000 0.519519
v -0.519519 0.750000 -0.519519
v 0.549133 0.250000 -0.549133
v 0.549133 0.250000 0.549133
v -0.549133 0.250000 -0.549133
v -0.549133 0.250000 0.549133
vn -0.0000 1.0000 -0.0000
vn -0.0000 0.5125 0.8587
vn -0.8587 0.5125 -0.0000
vn 0.8587 0.5125 -0.0000
vn -0.0000 0.5125 -0.8587
vn -0.0000 -0.4610 -0.8874
vn 0.8874 -0.4610 -0.0000
vn -0.8874 -0.4610 -0.0000
vn -0.0000 -0.4610 0.8874
vn -0.0000 0.3344 -0.9424
vn 0.9424 0.3344 -0.0000
vn -0.9424 0.3344 -0.0000
vn -0.0000 0.3344 0.9424
vn -0.0000 -0.2301 -0.9732
vn 0.9732 -0.2301 -0.0000
vn -0.9732 -0.2301 -0.0000
vn -0.0000 -0.2301 0.9732
vn -0.0000 -0.1176 0.9931
vn -0.9931 -0.1176 -0.0000
vn 0.9931 -0.1176 -0.0000
vn -0.0000 -0.1176 -0.9931
vt 0.625000 0.500000
vt 0.375000 0.250000
vt 0.375000 0.500000
vt 0.375000 0.000000
vt 0.375000 0.750000
vt 0.625000 0.750000
vt 0.875000 0.500000
vt 0.625000 0.250000
vt 0.875000 0.750000
vt 0.625000 1.000000
vt 0.625000 0.000000
vt 0.500000 0.500000
vt 0.500000 1.000000
vt 0.500000 0.000000
vt 0.500000 0.750000
vt 0.500000 0.250000
vt 0.562500 0.000000
vt 0.562500 1.000000
vt 0.562500 0.500000
vt 0.562500 0.750000
vt 0.562500 0.250000
vt 0.593750 0.000000
vt 0.593750 1.000000
vt 0.593750 0.500000
vt 0.593750 0.750000
vt 0.593750 0.250000
vt 0.531250 0.500000
vt 0.531250 0.750000
vt 0.531250 0.250000
vt 0.531250 1.000000
vt 0.531250 0.000000
s 0
usemtl Material
f 1/1/1 4/7/1 5/9/1 3/6/1
f 16/25/2 3/6/2 5/10/2 14/23/2
f 14/22/3 5/11/3 4/8/3 17/26/3
f 15/24/4 1/1/4 3/6/4 16/25/4
f 17/26/5 4/8/5 1/1/5 15/24/5
f 2/2/6 9/16/6 6/12/6
f 2/3/7 6/12/7 8/15/7
f 2/4/8 7/14/8 9/16/8
f 2/5/9 8/15/9 7/13/9
f 20/29/10 13/21/10 11/19/10 18/27/10
f 18/27/11 11/19/11 12/20/11 19/28/11
f 21/31/12 10/17/12 13/21/12 20/29/12
f 19/28/13 12/20/13 10/18/13 21/30/13
f 13/21/14 17/26/14 15/24/14 11/19/14
f 11/19/15 15/24/15 16/25/15 12/20/15
f 10/17/16 14/22/16 17/26/16 13/21/16
f 12/20/17 16/25/17 14/23/17 10/18/17
f 8/15/18 19/28/18 21/30/18 7/13/18
f 7/14/19 21/31/19 20/29/19 9/16/19
f 6/12/20 18/27/20 19/28/20 8/15/20
f 9/16/21 20/29/21 18/27/21 6/12/21
